<svg width="100" height="100" viewBox="0 0 100 100" fill="none" xmlns="http://www.w3.org/2000/svg">
<rect width="100" height="100" rx="50" fill="#7658CC"/>
<path d="M16.3288 66L16.5208 64.72C17.4168 64.72 18.0781 64.6133 18.5048 64.4C18.9101 64.1867 19.1874 63.8027 19.3368 63.248L25.1288 43.472C24.3181 43.8773 23.5394 44.3787 22.7928 44.976C22.0461 45.5733 21.3528 46.2133 20.7128 46.896L19.8488 46C20.6381 45.104 21.5234 44.304 22.5048 43.6C23.5074 42.8747 24.5421 42.288 25.6088 41.84L27.1128 36.72H29.5448L28.4248 40.976C28.7661 40.912 29.0968 40.8587 29.4168 40.816C29.7581 40.7733 30.0994 40.752 30.4408 40.752C32.2541 40.752 33.6621 41.2427 34.6648 42.224C35.6674 43.2053 36.1688 44.5813 36.1688 46.352C36.1688 47.76 35.8381 49.0933 35.1768 50.352C34.5154 51.5893 33.6088 52.7093 32.4568 53.712C31.3261 54.6933 30.0354 55.504 28.5848 56.144C27.1341 56.784 25.6194 57.2107 24.0408 57.424L22.8568 61.872C22.7714 62.192 22.7074 62.4587 22.6648 62.672C22.6221 62.8853 22.6008 63.0773 22.6008 63.248C22.6008 63.7813 22.8141 64.1547 23.2408 64.368C23.6888 64.5813 24.4674 64.6987 25.5768 64.72L25.3848 66H16.3288ZM24.3928 56.048C25.4594 55.8347 26.4941 55.44 27.4968 54.864C28.5208 54.288 29.4274 53.5733 30.2168 52.72C31.0274 51.8667 31.6674 50.9173 32.1368 49.872C32.6061 48.8053 32.8408 47.696 32.8408 46.544C32.8408 45.264 32.5421 44.24 31.9448 43.472C31.3688 42.704 30.5901 42.32 29.6088 42.32C29.3314 42.32 29.0541 42.3413 28.7768 42.384C28.5208 42.4053 28.2648 42.4373 28.0088 42.48L24.3928 56.048ZM49.966 33.04C51.2673 33.04 52.3127 33.3813 53.102 34.064C53.9127 34.7253 54.318 35.5893 54.318 36.656C54.318 37.168 54.222 37.6053 54.03 37.968C53.838 38.3093 53.582 38.512 53.262 38.576C52.9207 37.7653 52.4193 37.136 51.758 36.688C51.118 36.2187 50.3927 35.984 49.582 35.984C48.6007 35.984 47.79 36.3147 47.15 36.976C46.5313 37.616 46.222 38.448 46.222 39.472C46.222 40.56 46.5847 41.2213 47.31 41.456C48.3553 41.7973 49.0487 42.1067 49.39 42.384C49.7313 42.6613 49.902 43.0453 49.902 43.536C49.902 44.0053 49.7633 44.368 49.486 44.624C49.23 44.88 48.8567 45.008 48.366 45.008C47.918 45.008 47.5553 44.9227 47.278 44.752C47.0007 44.56 46.7447 44.3467 46.51 44.112C46.2967 43.856 46.0513 43.6427 45.774 43.472C45.518 43.28 45.198 43.184 44.814 43.184C44.0887 43.184 43.47 43.5573 42.958 44.304C42.4673 45.0293 42.222 45.9467 42.222 47.056C42.222 48.528 42.638 49.8613 43.47 51.056C44.302 52.2507 45.422 53.2 46.83 53.904C48.238 54.608 49.806 54.96 51.534 54.96C52.7287 54.96 53.8593 54.768 54.926 54.384C55.9927 54 56.9313 53.4773 57.742 52.816C58.574 52.1333 59.2247 51.3653 59.694 50.512C60.1633 49.6373 60.398 48.7093 60.398 47.728C60.398 46.832 60.1953 46.032 59.79 45.328C59.406 44.6027 58.8727 44.0267 58.19 43.6C57.5287 43.1733 56.7713 42.96 55.918 42.96C54.8727 42.96 54.03 43.2267 53.39 43.76C52.75 44.272 52.43 44.9653 52.43 45.84C52.43 46.48 52.6007 47.024 52.942 47.472C53.2833 47.8987 53.6887 48.112 54.158 48.112C54.6487 48.112 54.894 47.856 54.894 47.344C54.894 47.1947 54.8833 47.0347 54.862 46.864C54.8407 46.672 54.83 46.5013 54.83 46.352C54.83 45.9893 54.9473 45.6907 55.182 45.456C55.4167 45.2 55.7153 45.072 56.078 45.072C56.526 45.072 56.91 45.264 57.23 45.648C57.55 46.032 57.71 46.5013 57.71 47.056C57.71 47.8027 57.39 48.4533 56.75 49.008C56.11 49.5413 55.3313 49.808 54.414 49.808C53.39 49.808 52.5367 49.424 51.854 48.656C51.1927 47.8667 50.862 46.8853 50.862 45.712C50.862 44.688 51.118 43.792 51.63 43.024C52.1633 42.2347 52.8993 41.616 53.838 41.168C54.7767 40.72 55.854 40.496 57.07 40.496H60.43C61.71 40.496 62.734 40.2293 63.502 39.696C64.27 39.1627 64.654 38.448 64.654 37.552C64.654 36.9973 64.4833 36.5173 64.142 36.112C63.8007 35.6853 63.4167 35.472 62.99 35.472C62.6273 35.472 62.3927 35.5893 62.286 35.824C62.2007 36.0373 62.1367 36.2933 62.094 36.592C62.0513 36.8693 61.9447 37.1253 61.774 37.36C61.6033 37.5733 61.2513 37.68 60.718 37.68C60.206 37.68 59.8007 37.5413 59.502 37.264C59.2247 36.9653 59.086 36.56 59.086 36.048C59.086 35.344 59.3527 34.7893 59.886 34.384C60.4193 33.9573 61.1447 33.744 62.062 33.744C62.958 33.744 63.7473 33.9467 64.43 34.352C65.134 34.736 65.678 35.28 66.062 35.984C66.4673 36.6667 66.67 37.456 66.67 38.352C66.67 39.3333 66.4033 40.2187 65.87 41.008C65.358 41.776 64.6327 42.3947 63.694 42.864C62.7767 43.312 61.71 43.5573 60.494 43.6L60.43 43.728C60.9847 44.0693 61.4327 44.688 61.774 45.584C62.1367 46.4587 62.318 47.4293 62.318 48.496C62.318 49.8613 62.0193 51.1413 61.422 52.336C60.8247 53.5307 59.9927 54.576 58.926 55.472C57.8593 56.368 56.622 57.072 55.214 57.584C53.806 58.0747 52.2807 58.32 50.638 58.32C49.038 58.32 47.5553 58.0853 46.19 57.616C44.846 57.1253 43.662 56.4533 42.638 55.6C41.6353 54.7253 40.846 53.712 40.27 52.56C39.7153 51.3867 39.438 50.1173 39.438 48.752C39.438 46.896 39.918 45.3067 40.878 43.984C41.8593 42.64 43.182 41.7653 44.846 41.36C44.6967 40.9973 44.5687 40.5387 44.462 39.984C44.3553 39.408 44.302 38.864 44.302 38.352C44.302 37.3067 44.5367 36.3893 45.006 35.6C45.4967 34.7893 46.1687 34.16 47.022 33.712C47.8753 33.264 48.8567 33.04 49.966 33.04ZM63.41 66L63.602 64.72C64.498 64.72 65.1593 64.6133 65.586 64.4C65.9913 64.1867 66.2687 63.8027 66.418 63.248L72.21 43.472C71.3993 43.8773 70.6207 44.3787 69.874 44.976C69.1273 45.5733 68.434 46.2133 67.794 46.896L66.93 46C67.7193 45.104 68.6047 44.304 69.586 43.6C70.5887 42.8747 71.6233 42.288 72.69 41.84L74.194 36.72H76.626L75.506 40.976C75.8473 40.912 76.178 40.8587 76.498 40.816C76.8393 40.7733 77.1807 40.752 77.522 40.752C79.3353 40.752 80.7433 41.2427 81.746 42.224C82.7487 43.2053 83.25 44.5813 83.25 46.352C83.25 47.76 82.9193 49.0933 82.258 50.352C81.5967 51.5893 80.69 52.7093 79.538 53.712C78.4073 54.6933 77.1167 55.504 75.666 56.144C74.2153 56.784 72.7007 57.2107 71.122 57.424L69.938 61.872C69.8527 62.192 69.7887 62.4587 69.746 62.672C69.7033 62.8853 69.682 63.0773 69.682 63.248C69.682 63.7813 69.8953 64.1547 70.322 64.368C70.77 64.5813 71.5487 64.6987 72.658 64.72L72.466 66H63.41ZM71.474 56.048C72.5407 55.8347 73.5753 55.44 74.578 54.864C75.602 54.288 76.5087 53.5733 77.298 52.72C78.1087 51.8667 78.7487 50.9173 79.218 49.872C79.6873 48.8053 79.922 47.696 79.922 46.544C79.922 45.264 79.6233 44.24 79.026 43.472C78.45 42.704 77.6713 42.32 76.69 42.32C76.4127 42.32 76.1353 42.3413 75.858 42.384C75.602 42.4053 75.346 42.4373 75.09 42.48L71.474 56.048Z" fill="white"/>
</svg>
